<svg version="1" xmlns="http://www.w3.org/2000/svg" width="1981.333" height="1981.333" viewBox="0 0 1486.000000 1486.000000"><path d="M722.7.6c-.1.1-5.6.5-12.2.9-6.6.3-13.3.7-15 .9-1.6.2-6.5.6-10.7 1-4.2.4-8.5.8-9.5 1-1 .2-4.5.7-7.8 1.1-3.2.4-6.8.9-8 1.1-1.1.2-3.3.6-5 .9-6.8.9-11.1 1.6-12.5 2-.8.2-3.1.7-5 1-5.1.9-20.3 4.3-29.5 6.6-4.4 1.2-8.7 2.3-9.5 2.5-16 4-52.5 16.5-65.3 22.3-2.3 1-7.1 3.1-10.7 4.6-18.6 7.7-54.2 26.8-76 40.8-9 5.8-37.9 26.3-39 27.6-.3.4-2.5 2.2-5 4.1-7.5 5.8-7.9 6.1-20.7 17.4-14.7 12.8-33.2 31-46.3 45.7-12 13.3-30.6 36.4-37 45.9-.8 1.2-2.2 3.2-3.1 4.4-2.4 3.2-16.9 24.7-16.9 25.1 0 .2-2.2 4-5 8.4-2.7 4.4-5 8.3-5 8.5 0 .2-2.1 4-4.6 8.3-8.1 13.6-31.3 63.2-30.5 65.1.1.1-.5 1.5-1.3 3-3.1 6-17.3 50.1-19.1 59.2-.2.8-1 4.2-1.8 7.5-.9 3.3-1.8 7.1-2.1 8.5-.2 1.4-1.2 5.9-2.1 10-.9 4.1-1.8 8.6-2.1 10-.2 1.4-.6 3.4-.8 4.5-.4 2.6-1.7 10.4-2.1 13.5-.2 1.4-.6 3.8-.9 5.5-.5 2.9-1.4 10.5-2.2 17.5-.2 1.9-.5 5.5-.8 8-2.9 26.9-2.9 80.3-.1 105 .2 1.9.7 6.9 1.1 11 .4 4.1.8 7.7.9 8 .1.3.5 3.4.9 7s.9 7.6 1.1 9c.2 1.4 1.3 8.1 2.5 15 1.1 6.9 2.3 14.1 2.6 16 .3 1.9.7 4.2.9 5 .3.8.7 3.3 1 5.5.4 2.2 1 5.6 1.5 7.5.5 1.9 1.8 8.2 3 14 6.5 31.9 24.6 97.2 35.5 128 1.3 3.6 4.2 11.9 6.5 18.5 2.2 6.6 4.5 12.9 5 14 .5 1.1 2.3 5.6 3.9 10 6.7 18.5 21.8 55.6 29.4 72.5 1.3 3 4.3 9.7 6.7 14.9 12.4 27.9 39.4 82.3 54.3 109.3 2 3.8 5.4 9.8 7.4 13.5 2 3.8 5.8 10.5 8.5 15.1 2.6 4.6 4.8 8.5 4.8 8.7 0 .1 2.5 4.5 5.5 9.6 3.1 5.2 5.9 10.1 6.4 10.9 1.5 2.6 22.5 37 24.1 39.6.8 1.3 4.4 7 7.9 12.6 34.3 54.9 97.6 143.4 137.1 191.7 3 3.7 6.6 8.3 8 10.1 1.4 1.8 3 3.8 3.5 4.4.6.6 2.8 3.4 5 6.1 2.2 2.8 4.4 5.5 5 6.1.5.6 3.7 4.5 7 8.7 3.3 4.2 6.3 7.6 6.6 7.6.6.1.5-13-.6-146.4-.6-77.3-1.1-150.2-2-260-.2-32.5-.7-92.1-1-132.5-.8-96.7-1.2-157.5-2-260.5-.4-46.8-.8-97.7-.9-113.3-.1-15.6.1-28.5.5-28.8.7-.4 8.2-1.4 21.4-2.9 3.3-.4 6.8-.9 7.9-1.1 1-.2 4.4-.6 7.5-.9 3.1-.4 6.7-.8 8.1-1 1.4-.2 5.2-.7 8.5-1.1 3.3-.3 6.8-.8 7.7-.9.9-.2 4.8-.7 8.5-1 3.7-.4 7.1-.9 7.4-1.1.4-.2 3.3-.6 6.5-.9 3.3-.3 7.5-.8 9.4-1.1 1.9-.3 5.2-.8 7.2-1 2-.2 9.2-1 16-1.9 6.8-.8 14.1-1.8 16.3-2 2.2-.3 5.6-.7 7.5-1 1.9-.3 5.4-.7 7.8-1 9.7-1.2 12.8-1.6 15.2-2 1.4-.2 5.2-.7 8.5-1 8.1-.9 11.8-1.3 20-2.5 3.9-.5 8.8-1.2 11-1.4 2.2-.3 7.8-1 12.5-1.6 4.7-.6 10.2-1.3 12.3-1.5 2-.3 5.6-.7 8-1 2.3-.3 5.8-.8 7.7-1 1.9-.2 5.3-.7 7.5-1 2.2-.2 6.3-.7 9-1 2.8-.3 5.9-.7 7-.9 1.1-.2 4.9-.7 8.5-1.1 3.6-.4 7.3-.9 8.3-1.1 1-.2 4.5-.6 7.8-.9 3.3-.4 6.9-.8 7.9-1 1-.2 4.5-.6 7.7-1 3.2-.3 6.9-.8 8.3-1 1.4-.2 10.4-1.4 20-2.5s22.2-2.7 27.9-3.5c5.7-.8 10.6-1.3 10.8-1.2.3.3-26.5 7.1-27.7 7-.3 0-1.5.3-2.8.8-1.3.5-3.7 1.1-5.4 1.4-1.7.3-10.4 2.4-19.2 4.6-8.8 2.1-16.9 4.1-18 4.3-1.2.2-5 1.2-8.6 2.1-3.6.9-7.2 1.8-8.1 2-.9.2-6.6 1.5-12.5 3l-12.4 3.1c-.8.2-6.2 1.4-12 2.8-5.8 1.3-17 4.1-25 6.1l-16 4c-.8.2-3.7.8-6.4 1.5-2.7.6-16 3.8-29.5 7.1s-25.5 6.2-26.6 6.5c-1.1.2-4.9 1.1-8.4 2-7.4 1.8-6.4 1.6-20.1 4.8-5.8 1.4-17.5 4.2-26 6.3l-15.5 3.9-.1 495.6-.1 495.6 9.1-6.6c11.9-8.6 50.8-38 63.1-47.7 42.5-33.6 55.8-44.5 85-69.4 9.4-8 17.2-14.7 17.5-15 .3-.4 2.3-2.1 4.5-4s7.6-6.6 12-10.5c4.3-3.9 10.4-9.3 13.5-12 3-2.8 6-5.5 6.6-6 .7-.6 6-5.6 12-11.1s14.7-13.6 19.4-18c11.9-11.2 67.7-67 78.5-78.6 9.6-10.3 23.2-25.1 26.2-28.5 1.6-1.9 14.2-15.9 16.8-18.8.6-.6 3.5-4 6.5-7.6 3-3.6 5.7-6.7 6-7 .3-.3 4.3-5 8.9-10.5 4.6-5.5 9-10.9 10-12 4.5-5.4 23-28.5 25.5-32 1.7-2.2 3.2-4.2 3.6-4.5 1.2-1.1 27-36.1 35.4-48 9.5-13.6 35.5-52.7 36.7-55.3.7-1.5 1.6-2.7 2.1-2.7.4 0 .8-.4.8-.9 0-.6 2.6-5.2 5.8-10.3 20.1-32.3 42.7-74.9 61.7-116.3 7.5-16.4 19.7-47.1 27.5-69 8.1-22.9 20.3-64.7 22.6-77.5.3-1.4.9-4.1 1.4-6 1.2-4.7 5.7-27.5 6.5-32.5.3-2.3.7-5 .9-6.1.2-1.2.7-4.5 1.1-7.4.4-2.9.9-6.2 1.1-7.4.3-1.9 1-7.3 2-16.1 2-18.6 2.6-59.7 1.2-74.5-.5-4.1-1-14.5-1.3-23-.2-8.5-.7-18.4-1-22-1-13.3-1.6-20.6-2-23-.2-1.4-.6-5-1-8-1.4-12.7-1.7-14.6-2-16-.2-.8-.7-3.5-1.1-6-.3-2.5-.7-5-.8-5.5-.2-.6-.7-3.3-1.1-6-.5-2.8-1-5.2-1-5.5-.1-.3-.5-2.3-.9-4.5-1.4-6.9-8.6-35.7-10.8-43-1.2-3.9-2.2-7.5-2.4-8-1.2-5.6-15-43.2-19.8-53.8-.8-1.8-2.7-6.1-4.2-9.7-4.3-9.7-17.5-35.5-24.5-47.7-15.9-27.8-43.3-65.9-62.9-87.7-49.5-55.2-103.4-96.9-166-128.2-34.9-17.4-74.4-32.3-107.5-40.5-4.4-1.1-8.7-2.2-9.5-2.4-5.5-1.4-25.6-5.6-31-6.4-3.6-.6-7.4-1.3-8.5-1.5-1.1-.2-4.2-.7-7-1-10.1-1.5-12.1-1.7-14.5-2.1-3.8-.6-18.6-1.9-35.5-3.1-8.8-.6-50.3-1.2-50.8-.8zm26.7 893.5c2.3.6 5.7 2.9 8.6 5.8 12.2 12.2 12.5 34.4.6 46.9-14 15-35.9 5.4-39.4-17.3-1.4-8.4-.5-14.4 3.3-22 5.5-11.4 15.8-16.5 26.9-13.4z"/></svg>